P3
# p3 image
4 4
255
 32  32  32  32  32  32  32  32  32 239 191 189 
 32  32  32  32 239 191 189  32 239 191 189  32 
191 189  32 239 191 189  32  32  32  32 239 191 
189  32  32  32  32 239 191 189 119  32  32  32 
